<?xml version="1.0" standalone="no"?>
<!DOCTYPE svg PUBLIC "-//W3C//DTD SVG 20010904//EN"
 "http://www.w3.org/TR/2001/REC-SVG-20010904/DTD/svg10.dtd">
<svg version="1.0" xmlns="http://www.w3.org/2000/svg"
 width="512.000000pt" height="512.000000pt" viewBox="0 0 512.000000 512.000000"
 preserveAspectRatio="xMidYMid meet">
<metadata>
Created by potrace 1.16, written by Peter Selinger 2001-2019
</metadata>
<g transform="translate(0.000000,512.000000) scale(0.100000,-0.100000)"
fill="#000000" stroke="none">
<path d="M1085 4827 c-48 -22 -59 -41 -42 -69 8 -13 18 -33 22 -45 5 -18 2
-23 -12 -23 -25 0 -63 -28 -63 -46 0 -8 9 -14 19 -14 25 0 29 -9 22 -38 l-6
-24 -24 28 c-27 31 -45 96 -35 126 4 13 9 16 13 10 4 -7 16 -13 26 -15 11 -1
26 -6 33 -10 8 -6 12 -2 12 12 0 25 -59 71 -92 71 -36 0 -58 -30 -58 -78 l0
-41 -35 6 c-37 6 -75 -16 -75 -43 0 -8 -12 -6 -38 9 l-39 21 -48 -25 c-58 -28
-77 -54 -55 -72 20 -16 81 -157 74 -169 -3 -5 -13 -7 -21 -4 -8 3 -29 -5 -47
-19 -40 -30 -42 -30 -56 -5 -10 18 -7 22 22 34 18 8 36 12 39 10 10 -6 18 21
11 33 -11 16 -66 31 -87 23 -25 -9 -35 -4 -35 20 0 23 29 41 56 34 10 -2 25 0
33 5 20 13 -1 38 -40 46 -41 9 -84 -2 -119 -31 -25 -21 -37 -24 -80 -21 -33 3
-50 1 -51 -7 -1 -6 -2 -18 -3 -26 -1 -8 4 -22 10 -30 6 -8 20 -39 32 -69 33
-81 11 -85 -33 -6 -38 68 -79 100 -97 73 -10 -17 -10 -23 6 -93 8 -33 17 -90
21 -127 7 -77 15 -82 72 -47 26 16 37 19 46 10 13 -13 54 -15 62 -1 3 5 -1 17
-10 27 -8 10 -14 21 -13 25 2 4 -6 14 -17 22 -11 8 -16 18 -12 22 5 5 23 -8
40 -28 32 -36 72 -54 83 -37 3 5 -4 19 -15 31 -30 32 -34 53 -15 89 l16 33 19
-26 c24 -32 89 -67 121 -65 13 0 29 9 36 19 16 23 32 23 32 1 0 -14 4 -12 25
7 22 20 29 22 45 12 26 -16 35 1 16 30 -13 21 -12 28 13 80 15 32 25 61 22 65
-3 5 12 -8 34 -28 47 -42 96 -56 120 -33 18 18 29 58 22 78 -4 11 2 12 35 4
25 -5 45 -5 52 1 7 6 26 7 49 1 44 -10 56 2 27 27 -12 10 -26 27 -32 38 -10
19 -10 19 8 5 36 -29 81 -49 104 -47 25 2 79 53 80 75 0 7 -12 17 -26 22 -21
8 -31 6 -58 -15 -40 -30 -42 -30 -56 -5 -10 18 -7 22 22 34 18 8 36 12 39 10
10 -6 18 21 11 33 -11 16 -66 31 -87 23 -25 -9 -35 -4 -35 20 0 23 29 41 56
34 10 -2 26 0 34 6 13 8 13 11 -1 25 -22 22 -87 28 -124 12z"/>
<path d="M2065 4630 c-131 -7 -215 -32 -307 -93 -35 -22 -65 -41 -68 -42 -7 0
-87 -89 -133 -147 -69 -87 -116 -207 -103 -268 13 -70 88 -131 272 -224 l111
-57 -24 -60 c-27 -68 -42 -192 -24 -203 28 -18 9 -34 -50 -40 -78 -9 -104 -19
-124 -49 -16 -25 -29 -157 -15 -157 4 0 10 -13 12 -30 4 -27 1 -30 -29 -36
-18 -3 -36 -10 -39 -15 -3 -5 -14 -9 -25 -9 -11 0 -31 -7 -44 -16 -13 -9 -29
-13 -35 -9 -5 3 -10 -1 -10 -9 0 -8 -9 -17 -20 -21 -11 -3 -28 -17 -38 -30
-11 -13 -31 -27 -45 -31 -15 -3 -27 -10 -27 -16 0 -5 -4 -7 -9 -4 -5 3 -12 -5
-15 -19 -4 -14 -11 -25 -16 -25 -17 0 -11 -80 6 -98 16 -15 15 -17 -12 -24
-15 -4 -59 -38 -97 -75 -132 -130 -228 -300 -293 -518 l-39 -130 0 -195 c0
-215 4 -237 72 -379 40 -83 137 -189 222 -241 44 -28 49 -34 41 -54 -9 -25 20
-110 57 -162 11 -16 35 -57 54 -92 24 -44 38 -61 49 -57 60 23 138 30 368 30
233 0 255 -1 267 -18 7 -10 22 -19 34 -20 12 -1 21 -4 21 -7 0 -6 69 -43 82
-44 4 -1 16 -8 26 -16 10 -8 25 -16 32 -18 8 -2 25 -14 39 -28 13 -14 30 -23
38 -20 7 3 13 2 13 -3 0 -5 14 -14 30 -21 17 -7 30 -17 30 -22 0 -5 5 -6 10
-3 6 3 13 -1 16 -9 3 -9 10 -13 15 -10 5 3 9 0 9 -6 0 -6 5 -8 10 -5 6 3 10 1
10 -4 0 -6 3 -10 8 -9 4 1 17 -3 28 -10 12 -6 24 -8 28 -5 3 3 6 2 6 -4 0 -6
29 -19 65 -29 36 -10 65 -22 65 -27 0 -5 9 -6 20 -2 11 3 24 3 30 0 16 -10
160 -11 160 -1 0 4 7 5 16 2 9 -4 23 -1 31 5 7 7 16 9 19 6 5 -5 14 -69 18
-132 1 -16 5 -36 10 -43 4 -7 5 -24 2 -37 -3 -13 -2 -27 4 -30 6 -3 7 -17 4
-31 -3 -13 -2 -30 3 -37 6 -6 15 -46 22 -87 26 -153 70 -203 123 -140 15 18
25 37 22 42 -3 5 -1 15 5 22 11 13 9 354 -3 441 -3 22 -7 76 -9 120 -4 69 -2
83 15 100 35 36 188 236 211 276 26 46 43 48 164 23 77 -16 132 -39 186 -76
16 -11 30 -19 31 -17 9 10 12 689 3 689 -6 0 -8 30 -4 80 4 52 3 82 -4 86 -7
4 -9 28 -7 60 3 30 1 54 -4 54 -5 0 -8 17 -8 37 1 32 -4 66 -22 143 -2 8 4 15
12 17 21 4 124 -128 163 -209 18 -37 36 -67 40 -67 5 -1 6 54 4 122 -6 130 -8
156 -25 226 -6 25 -9 48 -6 52 2 4 -1 11 -7 14 -5 4 -8 13 -5 21 3 7 1 16 -5
20 -6 3 -8 12 -5 19 3 8 2 15 -2 17 -4 2 -19 41 -34 88 -14 47 -33 103 -41
125 -10 26 -12 41 -5 44 6 2 14 -2 18 -8 4 -7 11 -11 16 -10 5 1 11 0 14 -1
37 -17 230 -15 230 1 0 6 6 9 13 7 6 -1 26 6 44 15 18 9 39 17 48 17 8 0 15 5
15 10 0 6 11 15 25 20 14 5 25 16 25 25 0 8 6 15 13 15 20 0 127 206 127 247
0 7 5 13 11 13 7 0 9 10 5 26 -4 14 -3 31 2 37 13 18 -2 157 -23 202 -10 22
-17 43 -17 48 1 4 -3 7 -9 7 -6 0 -24 14 -41 30 -16 17 -36 30 -44 30 -8 0
-14 5 -14 11 0 5 -4 7 -10 4 -5 -3 -10 -2 -10 4 0 6 -7 8 -15 5 -8 -4 -15 -2
-15 4 0 6 -9 8 -20 5 -11 -3 -20 -1 -20 3 0 5 -52 9 -115 9 -63 0 -115 -3
-115 -8 0 -4 -4 -6 -9 -3 -5 3 6 38 25 76 l35 70 -31 155 c-44 217 -94 411
-127 492 l-28 68 -210 107 c-115 59 -234 117 -262 130 -29 12 -53 25 -53 28 0
4 -19 7 -42 8 -23 1 -50 4 -59 7 -9 3 -29 0 -45 -6 -16 -7 -33 -11 -38 -10 -5
1 -13 -3 -17 -10 -4 -7 -15 -13 -26 -14 -34 -4 -73 -17 -73 -25 0 -11 -130
-74 -150 -73 -8 0 -33 8 -55 18 -46 22 -39 19 -88 29 -20 5 -40 12 -43 17 -3
5 -10 7 -15 4 -5 -4 -9 -1 -9 5 0 7 -7 10 -15 7 -8 -4 -17 -2 -20 4 -4 5 -11
7 -16 3 -5 -3 -16 -1 -23 5 -7 6 -21 9 -30 5 -9 -3 -16 -1 -16 6 0 7 -8 9 -20
5 -12 -4 -27 -2 -35 5 -7 6 -19 10 -27 9 -7 -1 -24 0 -38 4 -49 12 -96 13
-205 7z m1005 -56 c0 -6 -94 -189 -109 -212 -6 -11 -28 -3 -100 35 -104 54
-104 50 4 105 118 61 205 91 205 72z m235 -74 c142 -71 309 -161 322 -174 4
-4 -37 -96 -92 -206 l-99 -199 -51 56 c-99 112 -219 221 -327 297 -38 26 -68
53 -68 59 0 7 26 65 57 130 57 118 58 119 88 113 16 -4 93 -38 170 -76z m-773
-4 c270 -88 497 -223 702 -418 130 -123 211 -223 295 -365 116 -194 153 -253
161 -253 8 0 50 64 97 148 22 39 24 49 15 95 -17 93 -82 380 -103 456 -11 40
-18 75 -16 77 4 4 13 -26 61 -201 43 -156 80 -357 73 -395 -9 -47 -98 -194
-119 -198 -16 -3 -136 140 -281 336 -67 90 -136 163 -224 235 -122 99 -217
145 -346 167 -34 6 -72 13 -84 15 -13 3 -40 33 -67 72 -53 81 -150 178 -226
227 -30 20 -51 36 -48 36 4 0 53 -15 110 -34z m690 -554 c74 -72 203 -230 393
-484 29 -38 29 -40 11 -53 -16 -12 -23 -12 -45 0 -53 27 -119 112 -176 226
-80 160 -152 264 -240 348 -42 40 -67 67 -54 61 12 -7 62 -51 111 -98z m-108
-407 c60 -13 114 -21 120 -18 8 4 8 2 1 -5 -13 -15 -75 -22 -95 -11 -53 27
-460 41 -580 19 -64 -12 -73 1 -14 21 40 14 86 18 254 18 184 1 217 -2 314
-24z m-621 -51 c44 -23 94 -61 145 -108 45 -43 52 -72 27 -116 l-14 -25 1 33
c1 47 -17 74 -87 131 -90 73 -100 76 -217 50 -54 -12 -98 -26 -98 -31 0 -4
-13 -8 -30 -8 -16 0 -49 -6 -72 -14 -86 -28 -146 -37 -195 -31 -84 13 -83 25
2 23 82 0 90 1 345 81 111 34 149 37 193 15z m1604 -55 c110 -41 163 -128 148
-245 -32 -257 -155 -409 -350 -429 -70 -8 -192 18 -165 35 9 6 17 4 22 -3 12
-20 126 -12 192 13 69 26 137 89 180 165 40 71 76 186 76 240 0 149 -142 251
-321 230 -53 -6 -58 -9 -42 -21 17 -13 17 -13 1 -14 -10 0 -18 5 -18 11 0 13
-57 2 -85 -17 -22 -16 -35 -18 -35 -5 0 8 111 46 160 54 75 13 182 6 237 -14z
m-2148 -323 c-4 -4 -33 -10 -164 -31 -16 -2 -52 -9 -80 -14 -158 -30 -227 -41
-283 -47 -52 -6 -65 -11 -72 -28 -16 -43 -4 -48 99 -42 72 4 89 3 66 -5 -54
-18 -139 -27 -167 -17 -47 17 -52 87 -8 100 26 7 353 64 450 78 62 8 166 12
159 6z m535 -105 c78 -5 121 -11 124 -19 2 -7 9 -12 15 -12 7 0 26 -21 42 -45
l30 -46 22 28 c12 15 19 31 16 36 -3 6 -1 7 6 3 6 -4 9 -12 6 -17 -4 -5 -2 -9
4 -9 5 0 11 7 13 16 2 13 8 12 37 -8 19 -13 36 -29 39 -36 3 -10 -3 -9 -22 3
-23 15 -26 16 -32 1 -3 -8 -14 -18 -25 -21 -10 -4 -19 -13 -19 -20 0 -15 54
-48 63 -39 3 3 16 -5 29 -18 44 -41 69 -59 77 -54 5 3 25 -31 45 -76 54 -120
109 -424 132 -727 l18 -232 -67 -67 c-52 -53 -68 -77 -76 -111 -17 -78 -34
-92 -177 -139 -71 -24 -171 -50 -222 -58 l-93 -15 -63 36 c-35 19 -76 35 -91
35 -16 0 -67 -12 -113 -26 -107 -32 -185 -27 -350 25 -125 39 -121 35 -135
123 l-6 37 43 -5 c37 -5 45 -3 59 16 12 18 19 20 35 11 29 -16 35 -14 29 9 -3
10 -2 19 2 18 32 -4 51 4 51 22 0 12 10 25 25 32 67 30 -9 71 -85 45 -8 -2
-46 -10 -85 -16 -38 -7 -79 -14 -91 -16 -17 -4 -23 5 -39 50 -27 81 -42 93
-104 85 -50 -6 -79 4 -47 16 9 3 16 15 16 26 0 15 -5 18 -21 13 -16 -5 -19 -4
-14 5 4 7 10 27 12 44 1 17 11 37 21 44 9 7 16 17 15 21 -1 4 4 30 11 57 17
63 9 123 -18 146 -53 46 -103 67 -185 78 -89 12 -141 2 -141 -26 0 -8 -6 -11
-15 -8 -52 20 -103 -49 -81 -110 6 -17 18 -36 26 -43 13 -10 11 -12 -13 -13
-25 0 -27 -2 -20 -27 10 -41 7 -104 -6 -112 -6 -4 -9 -15 -6 -23 4 -9 2 -19
-4 -23 -17 -10 -13 -25 4 -19 18 7 18 4 5 -32 -9 -22 -8 -29 5 -36 9 -6 15
-23 15 -44 0 -41 32 -91 66 -104 12 -5 31 -22 41 -37 10 -15 26 -37 35 -47 10
-11 18 -23 18 -28 0 -5 16 -16 35 -25 19 -9 35 -22 35 -29 0 -6 -32 -35 -71
-63 l-71 -52 -64 42 c-72 47 -158 134 -197 201 -55 95 -80 192 -85 338 -11
329 110 652 325 867 l73 73 83 0 c58 0 100 6 141 20 32 12 61 19 63 16 6 -5
-26 -195 -34 -209 -2 -4 -18 4 -35 18 -23 19 -41 25 -78 25 -42 0 -51 -4 -79
-35 -30 -34 -40 -65 -23 -65 5 0 17 9 27 20 25 28 30 18 10 -19 -10 -21 -14
-43 -9 -66 8 -43 -3 -63 -22 -38 -11 15 -13 16 -14 2 0 -26 58 -72 84 -65 49
12 114 66 132 110 l18 43 26 -19 c33 -24 89 -37 160 -38 48 0 60 4 88 30 31
28 33 35 57 191 14 88 25 165 25 170 0 5 14 9 31 9 31 0 31 -1 25 -37 -3 -21
-11 -90 -17 -153 -6 -63 -16 -125 -22 -138 -8 -18 -7 -26 5 -38 19 -19 78 -33
138 -34 l45 0 -25 -20 c-14 -10 -36 -22 -49 -25 -12 -3 -37 -19 -55 -35 -17
-17 -39 -33 -48 -36 -26 -8 -22 -17 17 -38 19 -10 37 -27 40 -37 6 -17 52 -38
130 -59 56 -14 101 -13 135 5 17 9 30 13 30 10 0 -10 63 37 98 73 17 18 32 41
32 51 0 24 -86 103 -127 119 -18 7 -47 17 -63 23 -25 10 -28 14 -18 26 17 21
64 43 111 53 l42 8 -48 1 c-26 1 -62 -6 -78 -15 -17 -8 -33 -14 -35 -11 -3 2
-1 78 3 168 l8 164 35 6 c48 9 134 9 274 0z m-340 -153 c-3 -68 -9 -150 -13
-183 l-6 -60 -97 0 c-53 0 -100 3 -104 7 -3 4 1 81 10 170 13 124 21 166 34
176 10 7 48 12 100 12 l83 0 -7 -122z m-310 55 c-2 -16 -11 -77 -18 -136 -15
-118 -27 -141 -78 -152 -47 -11 -166 5 -190 25 l-23 18 22 113 c13 62 26 116
30 120 5 3 26 10 47 14 l39 6 -6 -38 c-12 -76 -20 -168 -14 -163 3 3 15 48 26
99 12 52 23 97 26 100 6 5 79 17 122 20 19 1 22 -3 17 -26z m-186 -1246 c17
-51 36 -119 42 -152 7 -33 19 -80 27 -104 7 -24 11 -46 9 -49 -3 -3 -57 0
-119 7 -62 6 -133 11 -158 11 l-45 0 -28 88 c-15 48 -41 121 -58 162 l-29 75
21 17 c27 22 75 35 188 52 74 11 89 11 103 -1 9 -8 30 -56 47 -106z m1432
-129 c0 -57 3 -173 6 -258 6 -166 -2 -205 -31 -165 -9 11 -18 36 -22 57 -3 21
-9 38 -14 38 -40 0 -48 -212 -19 -515 21 -225 22 -412 1 -469 -18 -47 -38 62
-121 637 -21 145 -33 204 -46 218 -23 25 -27 24 -66 -10 -33 -29 -68 -105 -68
-148 0 -34 -15 -36 -50 -7 -48 41 -72 98 -79 191 -5 68 -11 86 -31 109 -50 53
-147 71 -216 38 -30 -14 -38 -14 -81 -1 -85 27 -225 59 -358 81 -118 20 -130
24 -133 44 -4 28 -3 28 101 -7 48 -17 128 -35 178 -40 87 -10 94 -9 188 21
109 34 91 36 202 -24 46 -25 47 -25 140 -11 52 7 157 34 235 60 155 51 175 66
189 148 6 37 65 115 87 115 4 0 8 -46 8 -102z"/>
</g>
</svg>
