<?xml version="1.0" standalone="no"?>
<!DOCTYPE svg PUBLIC "-//W3C//DTD SVG 20010904//EN"
 "http://www.w3.org/TR/2001/REC-SVG-20010904/DTD/svg10.dtd">
<svg version="1.0" xmlns="http://www.w3.org/2000/svg"
 width="512.000000pt" height="512.000000pt" viewBox="0 0 512.000000 512.000000"
 preserveAspectRatio="xMidYMid meet">
<metadata>
Created by potrace 1.16, written by Peter Selinger 2001-2019
</metadata>
<g transform="translate(0.000000,512.000000) scale(0.100000,-0.100000)"
fill="#000000" stroke="none">
<path d="M1445 4783 c-16 -9 -57 -26 -90 -38 -46 -16 -61 -26 -63 -43 -2 -16
2 -22 15 -22 43 -1 -19 -21 -74 -25 -44 -2 -61 -8 -75 -25 -17 -22 -17 -23 6
-41 18 -14 24 -27 21 -49 -3 -24 1 -32 27 -45 40 -20 52 -19 44 3 -3 9 9 1 28
-19 18 -20 35 -42 38 -49 6 -19 38 -5 38 17 0 10 -11 35 -26 56 -23 34 -24 39
-10 53 35 34 14 54 -37 35 -13 -5 -30 -5 -37 -1 -9 6 -1 11 26 16 48 10 65 7
80 -13 8 -12 13 -13 18 -5 13 21 33 12 52 -23 20 -38 31 -43 40 -20 12 31 45
28 75 -7 l28 -33 -5 45 c-5 43 -4 46 28 61 18 9 34 24 36 35 2 16 -4 19 -47
20 -28 1 -57 6 -64 13 -20 16 -41 -11 -33 -43 8 -31 -11 -44 -32 -22 -15 14
-14 17 6 36 22 21 30 50 12 50 -5 0 -21 -5 -35 -12 -18 -8 -29 -8 -36 -1 -8 8
0 17 29 32 l40 20 28 -29 c41 -42 49 -37 19 13 -14 24 -25 51 -25 60 0 21 -7
21 -45 0z"/>
<path d="M2005 4630 c-131 -7 -215 -32 -307 -93 -35 -22 -65 -41 -68 -42 -7 0
-87 -89 -133 -147 -69 -87 -116 -207 -103 -268 13 -70 88 -131 272 -224 l111
-57 -24 -60 c-27 -68 -42 -192 -24 -203 28 -18 9 -34 -50 -40 -78 -9 -104 -19
-124 -49 -16 -25 -29 -157 -15 -157 4 0 10 -13 12 -30 4 -27 1 -30 -29 -36
-18 -3 -36 -10 -39 -15 -3 -5 -14 -9 -25 -9 -11 0 -31 -7 -44 -16 -13 -9 -29
-13 -35 -9 -5 3 -10 -1 -10 -9 0 -8 -9 -17 -20 -21 -11 -3 -28 -17 -38 -30
-11 -13 -31 -27 -45 -31 -15 -3 -27 -10 -27 -16 0 -5 -4 -7 -9 -4 -5 3 -12 -5
-15 -19 -4 -14 -11 -25 -16 -25 -6 0 -10 -20 -10 -45 0 -25 3 -45 8 -45 4 0
14 -13 23 -28 l16 -28 -105 -114 c-98 -109 -106 -115 -139 -112 -41 3 -53 -6
-125 -92 -46 -55 -49 -62 -47 -107 2 -41 -2 -56 -29 -94 -35 -50 -35 -59 -7
-168 17 -68 17 -69 -4 -83 -12 -9 -21 -22 -21 -30 0 -27 28 -70 54 -82 24 -11
45 -61 61 -142 9 -47 109 -328 155 -435 61 -143 175 -369 214 -422 0 -1 26 6
56 14 43 13 112 16 318 17 243 1 265 0 277 -17 7 -10 22 -19 34 -20 12 -1 21
-4 21 -7 0 -6 69 -43 82 -44 4 -1 16 -8 26 -16 10 -8 25 -16 32 -18 8 -2 25
-14 39 -28 13 -14 30 -23 38 -20 7 3 13 2 13 -3 0 -5 14 -14 30 -21 17 -7 30
-17 30 -22 0 -5 5 -6 10 -3 6 3 13 -1 16 -9 3 -9 10 -13 15 -10 5 3 9 0 9 -6
0 -6 5 -8 10 -5 6 3 10 1 10 -4 0 -6 3 -10 8 -9 4 1 17 -3 28 -10 12 -6 24 -8
28 -5 3 3 6 2 6 -4 0 -6 29 -19 65 -29 36 -10 65 -22 65 -27 0 -5 9 -6 20 -2
11 3 24 3 30 0 15 -9 160 -11 160 -2 0 12 16 8 37 -11 16 -13 20 -28 19 -65 0
-26 2 -47 7 -47 4 0 7 -23 7 -50 0 -28 4 -58 9 -68 5 -9 16 -66 25 -127 18
-121 31 -148 81 -172 40 -19 47 -15 91 48 28 41 28 43 29 188 0 190 -10 325
-31 412 -17 69 -17 69 5 92 36 36 190 236 214 278 26 46 43 48 164 23 77 -16
132 -39 186 -76 16 -11 30 -19 31 -17 9 10 12 689 3 689 -6 0 -8 30 -4 80 4
52 3 82 -4 86 -7 4 -9 28 -7 60 3 30 1 54 -4 54 -5 0 -8 17 -8 37 1 32 -4 66
-22 143 -2 8 4 15 12 17 21 4 124 -128 163 -209 18 -37 36 -67 40 -67 5 -1 6
54 4 122 -6 130 -8 156 -25 226 -6 25 -9 48 -6 52 2 4 -1 11 -7 14 -5 4 -8 13
-5 21 3 7 1 16 -5 20 -6 3 -8 12 -5 19 3 8 2 15 -2 17 -4 2 -19 41 -34 88 -14
47 -33 103 -41 125 -10 26 -12 41 -5 44 6 2 14 -2 18 -8 4 -7 11 -11 16 -10 5
1 11 0 14 -1 37 -17 230 -15 230 1 0 6 6 9 13 7 6 -1 26 6 44 15 18 9 39 17
48 17 8 0 15 5 15 10 0 6 11 15 25 20 14 5 25 16 25 25 0 8 6 15 13 15 20 0
127 206 127 247 0 7 5 13 11 13 7 0 9 10 5 26 -4 14 -3 31 2 37 13 18 -2 157
-23 202 -10 22 -17 43 -17 48 1 4 -3 7 -9 7 -6 0 -24 14 -41 30 -16 17 -36 30
-44 30 -8 0 -14 5 -14 11 0 5 -4 7 -10 4 -5 -3 -10 -2 -10 4 0 6 -7 8 -15 5
-8 -4 -15 -2 -15 4 0 6 -9 8 -20 5 -11 -3 -20 -1 -20 3 0 5 -52 9 -115 9 -63
0 -115 -3 -115 -8 0 -4 -4 -6 -9 -3 -5 3 6 38 25 76 l35 70 -31 155 c-44 217
-94 411 -127 492 l-28 68 -210 107 c-115 59 -234 117 -262 130 -29 12 -53 25
-53 28 0 4 -19 7 -42 8 -23 1 -50 4 -59 7 -9 3 -29 0 -45 -6 -16 -7 -33 -11
-38 -10 -5 1 -13 -3 -17 -10 -4 -7 -15 -13 -26 -14 -34 -4 -73 -17 -73 -25 0
-11 -130 -74 -150 -73 -8 0 -33 8 -55 18 -46 22 -39 19 -88 29 -20 5 -40 12
-43 17 -3 5 -10 7 -15 4 -5 -4 -9 -1 -9 5 0 7 -7 10 -15 7 -8 -4 -17 -2 -20 4
-4 5 -11 7 -16 3 -5 -3 -16 -1 -23 5 -7 6 -21 9 -30 5 -9 -3 -16 -1 -16 6 0 7
-8 9 -20 5 -12 -4 -27 -2 -35 5 -7 6 -19 10 -27 9 -7 -1 -24 0 -38 4 -49 12
-96 13 -205 7z m1005 -56 c0 -6 -94 -189 -109 -212 -6 -11 -28 -3 -100 35
-104 54 -104 50 4 105 118 61 205 91 205 72z m235 -74 c142 -71 309 -161 322
-174 4 -4 -37 -96 -92 -206 l-99 -199 -51 56 c-99 112 -219 221 -327 297 -38
26 -68 53 -68 59 0 7 26 65 57 130 57 118 58 119 88 113 16 -4 93 -38 170 -76z
m-773 -4 c270 -88 497 -223 702 -418 130 -123 211 -223 295 -365 116 -194 153
-253 161 -253 8 0 50 64 97 148 22 39 24 49 15 95 -17 93 -82 380 -103 456
-11 40 -18 75 -16 77 4 4 13 -26 61 -201 43 -156 80 -357 73 -395 -9 -47 -98
-194 -119 -198 -16 -3 -136 140 -281 336 -67 90 -136 163 -224 235 -122 99
-217 145 -346 167 -34 6 -72 13 -84 15 -13 3 -40 33 -67 72 -53 81 -150 178
-226 227 -30 20 -51 36 -48 36 4 0 53 -15 110 -34z m690 -554 c74 -72 203
-230 393 -484 29 -38 29 -40 11 -53 -16 -12 -23 -12 -45 0 -53 27 -119 112
-176 226 -80 160 -152 264 -240 348 -42 40 -67 67 -54 61 12 -7 62 -51 111
-98z m-108 -407 c60 -13 114 -21 120 -18 8 4 8 2 1 -5 -13 -15 -75 -22 -95
-11 -53 27 -460 41 -580 19 -64 -12 -73 1 -14 21 40 14 86 18 254 18 184 1
217 -2 314 -24z m-621 -51 c44 -23 94 -61 145 -108 45 -43 52 -72 27 -116
l-14 -25 1 33 c1 47 -17 74 -87 131 -90 73 -100 76 -217 50 -54 -12 -98 -26
-98 -31 0 -4 -13 -8 -30 -8 -16 0 -49 -6 -72 -14 -86 -28 -146 -37 -195 -31
-84 13 -83 25 2 23 82 0 90 1 345 81 111 34 149 37 193 15z m1604 -55 c110
-41 163 -128 148 -245 -32 -257 -155 -409 -350 -429 -70 -8 -192 18 -165 35 9
6 17 4 22 -3 12 -20 126 -12 192 13 69 26 137 89 180 165 40 71 76 186 76 240
0 149 -142 251 -321 230 -53 -6 -58 -9 -42 -21 17 -13 17 -13 1 -14 -10 0 -18
5 -18 11 0 13 -57 2 -85 -17 -22 -16 -35 -18 -35 -5 0 8 111 46 160 54 75 13
182 6 237 -14z m-2148 -323 c-4 -4 -33 -10 -164 -31 -16 -2 -52 -9 -80 -14
-158 -30 -227 -41 -283 -47 -52 -6 -65 -11 -72 -28 -16 -43 -4 -48 99 -42 72
4 89 3 66 -5 -54 -18 -139 -27 -167 -17 -47 17 -52 87 -8 100 26 7 353 64 450
78 62 8 166 12 159 6z m196 -208 c-2 -40 -7 -121 -11 -181 -6 -104 -7 -107
-31 -113 -26 -7 -173 2 -181 11 -3 2 3 78 12 167 13 124 21 166 34 176 10 7
48 12 99 12 l83 0 -5 -72z m-319 -25 c-11 -91 -36 -206 -51 -229 -24 -38 -195
-39 -233 -1 -15 15 -15 23 1 99 10 46 21 99 25 118 6 30 12 35 46 42 22 5 41
6 43 4 2 -2 0 -39 -6 -81 -21 -147 -12 -155 18 -16 12 52 23 97 26 100 3 3 27
8 53 12 91 12 86 16 78 -48z m-408 -614 c9 -117 -55 -220 -157 -254 -48 -16
-54 -16 -97 1 -50 19 -104 81 -104 118 1 18 5 15 32 -17 17 -21 43 -44 59 -52
84 -44 192 14 220 118 7 24 9 77 6 126 l-5 84 21 -33 c13 -20 23 -56 25 -91z
m187 -501 c39 -123 77 -255 86 -298 6 -30 18 -68 26 -84 l15 -29 -68 7 c-38 3
-112 9 -165 13 l-96 6 -27 86 c-15 47 -41 119 -57 160 -21 53 -26 77 -19 86
34 42 294 86 305 53z"/>
<path d="M1047 4583 c-13 -12 -7 -50 13 -94 11 -24 20 -56 20 -71 0 -21 -4
-25 -20 -21 -11 3 -20 13 -20 23 0 22 -88 100 -112 100 -27 0 -38 -33 -38
-119 0 -97 12 -135 40 -128 13 3 24 -1 30 -13 8 -15 5 -19 -19 -23 -30 -6 -69
0 -87 15 -17 13 -37 -18 -30 -46 8 -31 -11 -44 -32 -22 -15 14 -14 17 6 36 22
21 30 50 12 50 -5 0 -21 -5 -35 -12 -18 -8 -29 -8 -36 -1 -8 8 0 17 29 32 l40
20 28 -29 c41 -42 49 -37 19 13 -14 24 -25 51 -25 60 0 21 -3 21 -43 0 -18 -9
-59 -26 -92 -38 -46 -16 -61 -26 -63 -43 -2 -16 2 -22 15 -22 32 -1 -121 -73
-161 -76 -60 -4 -78 -47 -25 -59 38 -9 99 -61 99 -86 0 -31 -97 35 -129 87
-45 75 -69 29 -31 -59 17 -38 21 -62 16 -94 -3 -25 -2 -43 4 -43 5 0 12 -11
16 -25 3 -14 12 -25 20 -25 14 0 19 17 16 53 -2 23 10 22 26 -4 17 -27 27 -18
12 10 -18 36 -1 43 38 16 50 -34 68 -32 88 11 14 29 15 42 7 64 -17 44 6 58
29 19 25 -41 33 -31 12 14 -17 36 -17 37 10 77 15 23 32 40 38 38 7 -3 20 -21
31 -41 20 -39 31 -45 44 -24 4 6 16 18 26 26 16 13 21 11 47 -20 l29 -34 -5
46 c-6 44 -5 47 22 53 38 10 54 24 54 47 0 26 59 26 93 -1 37 -29 42 -25 16
16 -21 34 -21 38 -6 67 10 21 16 26 16 15 1 -10 8 -18 16 -18 15 0 20 16 17
53 -2 23 10 22 26 -4 17 -27 27 -18 12 10 -19 36 -1 42 40 15 46 -30 75 -29
75 4 0 18 -18 34 -84 75 -46 29 -89 61 -95 72 -6 10 -17 25 -23 33 -7 7 -13
18 -13 23 0 10 -14 12 -23 2z"/>
</g>
</svg>
